<mxfile host="app.diagrams.net" modified="2022-11-01T21:07:23.212Z" agent="5.0 (X11)" etag="pJfspRg5AkS8yJVCQueh" version="20.5.1" type="github">
  <diagram id="Wjof7K-oPUGz_6UPYV_i" name="Page-1">
    <mxGraphModel dx="1621" dy="199" grid="0" gridSize="10" guides="1" tooltips="1" connect="1" arrows="1" fold="1" page="0" pageScale="1" pageWidth="850" pageHeight="1100" math="0" shadow="0">
      <root>
        <mxCell id="0" />
        <mxCell id="1" parent="0" />
        <mxCell id="RJ_CnmSzj1MfjM9F9GcZ-1" value="&lt;div&gt;Dram annotations&lt;/div&gt;" style="whiteSpace=wrap;html=1;fontSize=16;" vertex="1" parent="1">
          <mxGeometry x="158" y="819" width="120" height="60" as="geometry" />
        </mxCell>
        <mxCell id="RJ_CnmSzj1MfjM9F9GcZ-2" value="&lt;div&gt;Extract enigmatic genes:&lt;/div&gt;&lt;div&gt;extract only the genes that cant be used by adjectives without more information.&lt;br&gt;&lt;/div&gt;" style="rounded=0;whiteSpace=wrap;html=1;fontSize=16;" vertex="1" parent="1">
          <mxGeometry x="77" y="962" width="246" height="120" as="geometry" />
        </mxCell>
      </root>
    </mxGraphModel>
  </diagram>
</mxfile>
